<?xml version="1.0" encoding="utf-8"?>
<svg viewBox="0 0 500 500" xmlns="http://www.w3.org/2000/svg">
  <path style="" d="M 313.893 216.414 L 318.441 216.562 C 313.904 232.058 290.183 279.074 233.565 285.448 C 233.639 282.295 233.783 279.18 233.991 276.103 C 242.031 274.966 251.225 272.688 251.225 272.688 C 251.225 272.688 241.936 273.809 234.143 274.008 C 234.261 272.491 234.394 270.984 234.541 269.487 C 293.805 269.436 313.893 216.414 313.893 216.414 Z"/>
  <path style="" d="M 184.765 142.2 L 188.309 144.514 C 188.309 144.514 176.075 192.684 216.637 224.465 C 216.148 225.739 215.666 227.023 215.192 228.318 C 206.603 221.39 201.894 214.771 201.894 214.771 C 201.894 214.771 205.131 221.967 214.416 230.466 C 213.525 232.969 212.664 235.51 211.836 238.089 C 170.583 203.064 179.896 156.6 184.765 142.2 Z"/>
  <path d="M 282.911 424.3 C 277.927 417.561 273.414 410.862 269.338 404.212 C 339.569 405.836 405.726 442.639 434.428 482.556 C 400.873 456.951 346.513 427.494 283.624 425.264 L 282.911 424.3 Z M 74.356 492.181 C 97.985 449.899 151.695 417.662 217.753 407.503 C 220.369 414.059 223.287 420.683 226.528 427.369 C 160.45 434.668 105.323 458.331 77.225 489.667 C 76.257 490.498 75.301 491.336 74.356 492.181 Z" style=""/>
  <path style="stroke-width: 5px;" d="M 272.254 139.529 L 278.597 149.735 C 278.597 149.735 172.539 279.542 277.403 425.093 C 272.821 425.003 268.197 424.993 263.538 425.064 C 263.253 425.068 262.968 425.073 262.684 425.078 C 245.28 398.222 232.305 369.51 232.305 369.51 C 232.305 369.51 239.537 398 253.878 425.329 C 246.059 425.637 238.355 426.173 230.787 426.923 C 159.615 283.369 241.869 171.344 272.254 139.529 Z"/>
  <g style="" transform="matrix(1, 0, 0, 1, -0.000343, 0.238706)">
    <path style="" d="M 277.822 126.195 C 243.547 71.299 312.229 30.733 312.229 30.733 C 312.229 30.733 343.937 105.73 286.443 128.186 C 286.443 128.186 311.632 32.643 311.632 32.619 C 311.632 32.595 277.822 126.195 277.822 126.195 Z"/>
    <path style="" d="M 359.484 196.761 C 325.209 141.865 393.891 101.299 393.891 101.299 C 393.891 101.299 425.599 176.296 368.105 198.752 C 368.105 198.752 393.294 103.209 393.294 103.185 C 393.294 103.161 359.484 196.761 359.484 196.761 Z" transform="matrix(0.721137, 0.692792, -0.692792, 0.721137, 208.860667, -218.831519)"/>
    <path style="" d="M 372.095 307.102 C 337.82 252.206 406.502 211.64 406.502 211.64 C 406.502 211.64 438.21 286.637 380.716 309.093 C 380.716 309.093 405.905 213.55 405.905 213.526 C 405.905 213.502 372.095 307.102 372.095 307.102 Z" transform="matrix(-0.016757, 0.99986, -0.99986, -0.016757, 655.714164, -124.08417)"/>
    <path style="" d="M 293.63 390.305 C 259.355 335.409 328.037 294.843 328.037 294.843 C 328.037 294.843 359.745 369.84 302.251 392.296 C 302.251 392.296 327.44 296.753 327.44 296.729 C 327.44 296.705 293.63 390.305 293.63 390.305 Z" transform="matrix(-0.732423, 0.680849, -0.680849, -0.732423, 771.668725, 383.870048)"/>
    <path style="" d="M 105.631 319.774 C 71.356 264.878 140.038 224.312 140.038 224.312 C 140.038 224.312 171.746 299.309 114.252 321.765 C 114.252 321.765 139.441 226.222 139.441 226.198 C 139.441 226.174 105.631 319.774 105.631 319.774 Z" transform="matrix(-0.711893, -0.702288, 0.702288, -0.711893, 17.791124, 553.375651)"/>
    <path style="" d="M 100.936 213.835 C 66.661 158.939 135.343 118.373 135.343 118.373 C 135.343 118.373 167.051 193.37 109.557 215.826 C 109.557 215.826 134.746 120.283 134.746 120.259 C 134.746 120.235 100.936 213.835 100.936 213.835 Z" transform="matrix(0.049129, -0.998792, 0.998792, 0.049129, -54.971566, 276.456998)"/>
    <path style="" d="M 173.229 134.177 C 138.954 79.281 207.636 38.715 207.636 38.715 C 207.636 38.715 239.344 113.712 181.85 136.168 C 181.85 136.168 207.039 40.625 207.039 40.601 C 207.039 40.577 173.229 134.177 173.229 134.177 Z" transform="matrix(0.713856, -0.700292, 0.700292, 0.713856, -6.866702, 158.077816)"/>
  </g>
  <g style="" transform="matrix(1, 0, 0, 1, -0.000343, 0.238706)">
    <path style="" d="M 418.42 234.645 C 400.294 205.613 436.617 184.16 436.617 184.16 C 436.617 184.16 453.386 223.822 422.98 235.698 C 422.98 235.698 436.301 185.169 436.301 185.157 C 436.301 185.144 418.42 234.645 418.42 234.645 Z" transform="matrix(0.348439, 0.937331, -0.937331, 0.348439, 475.179182, -263.731795)"/>
    <path style="" d="M 371.229 361.475 C 353.103 332.443 389.426 310.99 389.426 310.99 C 389.426 310.99 406.195 350.652 375.789 362.528 C 375.789 362.528 389.11 311.999 389.11 311.987 C 389.11 311.974 371.229 361.475 371.229 361.475 Z" transform="matrix(-0.465149, 0.885233, -0.885233, -0.465149, 855.013124, 156.925126)"/>
    <path style="" d="M 117.774 371.195 C 99.648 342.163 135.971 320.71 135.971 320.71 C 135.971 320.71 152.74 360.372 122.334 372.248 C 122.334 372.248 135.655 321.719 135.655 321.707 C 135.655 321.694 117.774 371.195 117.774 371.195 Z" transform="matrix(-0.909094, -0.416591, 0.416591, -0.909094, 97.437263, 714.220149)"/>
    <path style="" d="M 63.711 246.338 C 45.585 217.306 81.908 195.853 81.908 195.853 C 81.908 195.853 98.677 235.515 68.271 247.391 C 68.271 247.391 81.592 196.862 81.592 196.85 C 81.592 196.837 63.711 246.338 63.711 246.338 Z" transform="matrix(-0.321711, -0.946838, 0.946838, -0.321711, -113.907633, 361.643666)"/>
    <path style="" d="M 109.829 118.726 C 91.703 89.694 128.026 68.241 128.026 68.241 C 128.026 68.241 144.795 107.903 114.389 119.779 C 114.389 119.779 127.71 69.25 127.71 69.238 C 127.71 69.225 109.829 118.726 109.829 118.726 Z" transform="matrix(0.465149, -0.885233, 0.885233, 0.465149, -19.733849, 155.358494)"/>
    <path style="" d="M 233.214 61.122 C 215.087 32.09 251.411 10.637 251.411 10.637 C 251.411 10.637 268.18 50.299 237.774 62.175 C 237.774 62.175 251.095 11.646 251.095 11.634 C 251.095 11.621 233.214 61.122 233.214 61.122 Z" transform="matrix(0.950438, -0.310914, 0.310914, 0.950438, 0.679064, 77.071927)"/>
    <path style="" d="M 360.856 110.87 C 342.73 81.838 379.053 60.385 379.053 60.385 C 379.053 60.385 395.822 100.047 365.416 111.923 C 365.416 111.923 378.737 61.394 378.737 61.382 C 378.737 61.369 360.856 110.87 360.856 110.87 Z" transform="matrix(0.885233, 0.465149, -0.465149, 0.885233, 82.507066, -162.090401)"/>
  </g>
</svg>